<svg width="52" height="52" viewBox="0 0 52 52" fill="none" xmlns="http://www.w3.org/2000/svg">
<rect x="1" y="1" width="50" height="50" rx="25" stroke="#007F9B" stroke-width="2"/>
<path d="M30.368 31.25C30.1626 31.25 29.9666 31.166 29.78 30.998C29.5933 30.83 29.5 30.634 29.5 30.41C29.5 30.1673 29.584 29.9527 29.752 29.766L33.532 26.014L29.752 22.262C29.584 22.0753 29.5 21.87 29.5 21.646C29.5 21.4033 29.584 21.198 29.752 21.03C29.9386 20.8433 30.144 20.75 30.368 20.75C30.6106 20.75 30.816 20.8433 30.984 21.03L35.352 25.398C35.5386 25.5847 35.632 25.79 35.632 26.014C35.632 26.238 35.5386 26.4433 35.352 26.63L30.984 30.998C30.816 31.166 30.6106 31.25 30.368 31.25ZM34.064 26.882H17.264C17.0213 26.882 16.8066 26.8073 16.62 26.658C16.452 26.49 16.368 26.2753 16.368 26.014C16.368 25.7527 16.452 25.5473 16.62 25.398C16.788 25.23 17.0026 25.146 17.264 25.146H34.064C34.288 25.146 34.484 25.23 34.652 25.398C34.8386 25.5473 34.932 25.7527 34.932 26.014C34.932 26.2753 34.8386 26.49 34.652 26.658C34.484 26.8073 34.288 26.882 34.064 26.882Z" fill="#007F9B"/>
</svg>
