<svg width="348" height="64" viewBox="0 0 348 64" fill="none" xmlns="http://www.w3.org/2000/svg">
<path d="M0 1.16062H23.0224V45.1813H64.8519V62.8394H0V1.16062Z" fill="white"/>
<path d="M110.865 0H114.513C153.424 0 158.45 18.9845 158.45 30.5907V33.0777C158.45 44.601 153.505 64 114.513 64H110.865C71.7918 64 66.8468 44.601 66.8468 33.0777V30.5907C66.8468 18.9845 71.7918 0 110.865 0ZM134.617 32.3316V31.171C134.617 24.6218 130.483 16.5803 112.648 16.5803C94.4899 16.5803 90.6799 24.6218 90.6799 31.171V32.1658C90.6799 38.6321 94.8142 47.3368 112.648 47.3368C130.483 47.3368 134.617 38.9637 134.617 32.3316Z" fill="white"/>
<path d="M204.72 64H202.856C169.863 64 162.161 45.9275 162.161 32.9119V30.5907C162.161 17.3264 169.295 0 204.882 0H208.044C245.01 0 250.036 15.171 250.36 23.7927V23.8756H226.365C225.959 22.3005 223.852 16.0829 206.828 16.0829C190.615 16.0829 185.994 23.2124 185.994 31.3368V32.2487C185.994 40.1244 191.75 47.8342 206.666 47.8342C222.23 47.8342 227.256 42.114 227.256 40.1244H206.098V28.1036H250.765V62.8394H236.255C235.849 60.8497 234.552 56.5389 233.417 54.3005C231.066 56.9534 223.527 64 204.72 64Z" fill="white"/>
<path d="M300.148 0H303.796C342.707 0 347.733 18.9845 347.733 30.5907V33.0777C347.733 44.601 342.788 64 303.796 64H300.148C261.075 64 256.13 44.601 256.13 33.0777V30.5907C256.13 18.9845 261.075 0 300.148 0ZM323.9 32.3316V31.171C323.9 24.6218 319.766 16.5803 301.932 16.5803C283.773 16.5803 279.963 24.6218 279.963 31.171V32.1658C279.963 38.6321 284.097 47.3368 301.932 47.3368C319.766 47.3368 323.9 38.9637 323.9 32.3316Z" fill="white"/>
</svg>
