<svg width="7" height="10" viewBox="0 0 7 10" fill="none" xmlns="http://www.w3.org/2000/svg">
<path fill-rule="evenodd" clip-rule="evenodd" d="M1.17694 1.18778C1.29026 1.07445 1.43573 1 1.60705 1C1.77837 1 1.92383 1.07445 2.03716 1.18778L5.41927 4.56989C5.53259 4.68321 5.60705 4.82868 5.60705 5C5.60705 5.17132 5.53259 5.31678 5.41927 5.43011L2.04584 8.80354C1.98607 8.87327 1.91183 8.92264 1.83304 8.95641L1.82268 8.96085L1.81199 8.96441C1.74797 8.98575 1.67885 9 1.60705 9C1.53713 9 1.46735 8.98642 1.40251 8.96789L1.3783 8.96097L1.35577 8.94971C1.28356 8.91361 1.2195 8.86432 1.16672 8.80179C1.0606 8.69096 1 8.55124 1 8.39295C1 8.22885 1.05987 8.07991 1.17694 7.96284L4.13978 5L1.17694 2.03716C1.06449 1.92471 1 1.78118 1 1.61789C1 1.45379 1.05987 1.30484 1.17694 1.18778Z" fill="black" stroke="black"/>
</svg>
