<svg width="348" height="64" viewBox="0 0 348 64" fill="none" xmlns="http://www.w3.org/2000/svg">
<path d="M0 1.16062H23.0401V45.1813H64.9016V62.8394H0V1.16062Z" fill="url(#paint0_linear_2010_70)"/>
<path d="M110.95 0H114.601C153.542 0 158.572 18.9845 158.572 30.5907V33.0777C158.572 44.601 153.623 64 114.601 64H110.95C71.8468 64 66.8981 44.601 66.8981 33.0777V30.5907C66.8981 18.9845 71.8468 0 110.95 0ZM134.72 32.3316V31.171C134.72 24.6218 130.583 16.5803 112.735 16.5803C94.5624 16.5803 90.7494 24.6218 90.7494 31.171V32.1658C90.7494 38.6321 94.8869 47.3368 112.735 47.3368C130.583 47.3368 134.72 38.9637 134.72 32.3316Z" fill="url(#paint1_linear_2010_70)"/>
<path d="M204.877 64H203.011C169.993 64 162.286 45.9275 162.286 32.9119V30.5907C162.286 17.3264 169.425 0 205.04 0H208.204C245.198 0 250.227 15.171 250.552 23.7927V23.8756H226.538C226.133 22.3005 224.023 16.0829 206.987 16.0829C190.761 16.0829 186.137 23.2124 186.137 31.3368V32.2487C186.137 40.1244 191.897 47.8342 206.824 47.8342C222.401 47.8342 227.431 42.114 227.431 40.1244H206.257V28.1036H250.958V62.8394H236.436C236.03 60.8497 234.732 56.5389 233.596 54.3005C231.244 56.9534 223.699 64 204.877 64Z" fill="url(#paint2_linear_2010_70)"/>
<path d="M300.378 0H304.029C342.97 0 348 18.9845 348 30.5907V33.0777C348 44.601 343.051 64 304.029 64H300.378C261.275 64 256.326 44.601 256.326 33.0777V30.5907C256.326 18.9845 261.275 0 300.378 0ZM324.149 32.3316V31.171C324.149 24.6218 320.011 16.5803 302.163 16.5803C283.991 16.5803 280.178 24.6218 280.178 31.171V32.1658C280.178 38.6321 284.315 47.3368 302.163 47.3368C320.011 47.3368 324.149 38.9637 324.149 32.3316Z" fill="url(#paint3_linear_2010_70)"/>
<defs>
<linearGradient id="paint0_linear_2010_70" x1="0" y1="32" x2="348" y2="32" gradientUnits="userSpaceOnUse">
<stop stop-color="#00D8D8"/>
<stop offset="1" stop-color="#02FF49"/>
</linearGradient>
<linearGradient id="paint1_linear_2010_70" x1="0" y1="32" x2="348" y2="32" gradientUnits="userSpaceOnUse">
<stop stop-color="#00D8D8"/>
<stop offset="1" stop-color="#02FF49"/>
</linearGradient>
<linearGradient id="paint2_linear_2010_70" x1="0" y1="32" x2="348" y2="32" gradientUnits="userSpaceOnUse">
<stop stop-color="#00D8D8"/>
<stop offset="1" stop-color="#02FF49"/>
</linearGradient>
<linearGradient id="paint3_linear_2010_70" x1="0" y1="32" x2="348" y2="32" gradientUnits="userSpaceOnUse">
<stop stop-color="#00D8D8"/>
<stop offset="1" stop-color="#02FF49"/>
</linearGradient>
</defs>
</svg>
