<svg width="7" height="10" viewBox="0 0 7 10" fill="none" xmlns="http://www.w3.org/2000/svg">
<path fill-rule="evenodd" clip-rule="evenodd" d="M1.37347 1.18778C1.48679 1.07445 1.63226 1 1.80358 1C1.9749 1 2.12036 1.07445 2.23369 1.18778L5.6158 4.56989C5.72913 4.68321 5.80358 4.82868 5.80358 5C5.80358 5.17132 5.72913 5.31678 5.6158 5.43011L2.24238 8.80354C2.1826 8.87327 2.10836 8.92264 2.02957 8.95641L2.01921 8.96085L2.00852 8.96441C1.9445 8.98575 1.87538 9 1.80358 9C1.73366 9 1.66388 8.98642 1.59905 8.96789L1.57483 8.96097L1.5523 8.94971C1.4801 8.91361 1.41604 8.86432 1.36326 8.80179C1.25713 8.69096 1.19653 8.55124 1.19653 8.39295C1.19653 8.22885 1.2564 8.07991 1.37347 7.96284L4.33631 5L1.37347 2.03716C1.26103 1.92471 1.19653 1.78118 1.19653 1.61789C1.19653 1.45379 1.2564 1.30484 1.37347 1.18778Z" fill="white" stroke="white"/>
</svg>
