<svg width="248" height="45" viewBox="0 0 248 45" fill="none" xmlns="http://www.w3.org/2000/svg">
<path d="M0.083374 0.816062H16.4972V31.7681H46.3196V44.1839H0.083374V0.816062Z" fill="white"/>
<path d="M79.1247 0H81.7254C109.467 0 113.05 13.3484 113.05 21.5091V23.2578C113.05 31.3601 109.525 45 81.7254 45H79.1247C51.2674 45 47.7419 31.3601 47.7419 23.2578V21.5091C47.7419 13.3484 51.2674 0 79.1247 0ZM96.0587 22.7332V21.9171C96.0587 17.3122 93.1111 11.658 80.3962 11.658C67.45 11.658 64.7337 17.3122 64.7337 21.9171V22.6166C64.7337 27.1632 67.6812 33.2837 80.3962 33.2837C93.1111 33.2837 96.0587 27.3964 96.0587 22.7332Z" fill="white"/>
<path d="M146.039 45H144.71C121.187 45 115.696 32.2927 115.696 23.1412V21.5091C115.696 12.1826 120.782 0 146.154 0H148.408C174.763 0 178.346 10.6671 178.578 16.7293V16.7876H161.47C161.181 15.68 159.679 11.3083 147.542 11.3083C135.983 11.3083 132.688 16.3212 132.688 22.0337V22.6749C132.688 28.2124 136.792 33.6334 147.426 33.6334C158.523 33.6334 162.106 29.6114 162.106 28.2124H147.021V19.7604H178.867V44.1839H168.521C168.232 42.785 167.308 39.7539 166.498 38.18C164.822 40.0453 159.447 45 146.039 45Z" fill="white"/>
<path d="M214.074 0H216.675C244.417 0 248 13.3484 248 21.5091V23.2578C248 31.3601 244.475 45 216.675 45H214.074C186.217 45 182.691 31.3601 182.691 23.2578V21.5091C182.691 13.3484 186.217 0 214.074 0ZM231.008 22.7332V21.9171C231.008 17.3122 228.061 11.658 215.346 11.658C202.4 11.658 199.683 17.3122 199.683 21.9171V22.6166C199.683 27.1632 202.631 33.2837 215.346 33.2837C228.061 33.2837 231.008 27.3964 231.008 22.7332Z" fill="white"/>
</svg>
