<svg width="174" height="32" viewBox="0 0 174 32" fill="none" xmlns="http://www.w3.org/2000/svg">
<path d="M0 0.580311H11.52V22.5907H32.4508V31.4197H0V0.580311Z" fill="white"/>
<path d="M55.475 0H57.3004C76.7709 0 79.2858 9.49223 79.2858 15.2953V16.5389C79.2858 22.3005 76.8114 32 57.3004 32H55.475C35.9234 32 33.449 22.3005 33.449 16.5389V15.2953C33.449 9.49223 35.9234 0 55.475 0ZM67.3601 16.1658V15.5855C67.3601 12.3109 65.2914 8.29015 56.3674 8.29015C47.2812 8.29015 45.3747 12.3109 45.3747 15.5855V16.0829C45.3747 19.3161 47.4435 23.6684 56.3674 23.6684C65.2914 23.6684 67.3601 19.4819 67.3601 16.1658Z" fill="white"/>
<path d="M102.439 32H101.506C84.9964 32 81.1428 22.9637 81.1428 16.456V15.2953C81.1428 8.66321 84.7124 0 102.52 0H104.102C122.599 0 125.114 7.58549 125.276 11.8964V11.9378H113.269C113.066 11.1503 112.012 8.04145 103.493 8.04145C95.3806 8.04145 93.0685 11.6062 93.0685 15.6684V16.1244C93.0685 20.0622 95.9485 23.9171 103.412 23.9171C111.2 23.9171 113.715 21.057 113.715 20.0622H103.128V14.0518H125.479V31.4197H118.218C118.015 30.4249 117.366 28.2694 116.798 27.1503C115.622 28.4767 111.849 32 102.439 32Z" fill="white"/>
<path d="M150.189 0H152.015C171.485 0 174 9.49223 174 15.2953V16.5389C174 22.3005 171.526 32 152.015 32H150.189C130.638 32 128.163 22.3005 128.163 16.5389V15.2953C128.163 9.49223 130.638 0 150.189 0ZM162.074 16.1658V15.5855C162.074 12.3109 160.006 8.29015 151.082 8.29015C141.995 8.29015 140.089 12.3109 140.089 15.5855V16.0829C140.089 19.3161 142.158 23.6684 151.082 23.6684C160.006 23.6684 162.074 19.4819 162.074 16.1658Z" fill="white"/>
</svg>
